<svg width="145" height="122" viewBox="0 0 145 122" fill="none" xmlns="http://www.w3.org/2000/svg">
<path fill-rule="evenodd" clip-rule="evenodd" d="M94.1974 56.4372L93.8994 56.3711C93.9984 56.4041 94.0974 56.4041 94.1974 56.4372Z" fill="#292929"/>
<path fill-rule="evenodd" clip-rule="evenodd" d="M73.3326 82.8904L50.8473 79.5514C49.4915 79.3524 48.8633 78.1295 49.4254 76.8395L58.7833 55.247C59.3454 53.9574 60.8995 53.0646 62.2222 53.263L84.7075 56.6027C86.0634 56.8011 86.6914 58.0246 86.1294 59.3142L76.7715 80.9065C76.2094 82.1965 74.6553 83.0894 73.3326 82.8904Z" fill="white"/>
<path fill-rule="evenodd" clip-rule="evenodd" d="M63.379 62.5882L59.5102 62.0261C58.6174 61.8938 58.1214 61.0672 58.5182 60.1413L60.1385 56.4378C60.5022 55.5781 61.5603 54.9168 62.5193 55.0821L66.3881 55.6442C67.2809 55.7765 67.7769 56.6032 67.3801 57.529L65.7598 61.2325C65.363 62.1583 64.3379 62.7535 63.379 62.5882ZM60.8659 60.0752L63.7758 60.505L64.9993 57.6613L62.0894 57.2314L60.8659 60.0752Z" fill="#313131"/>
<path fill-rule="evenodd" clip-rule="evenodd" d="M73.1007 80.8732L69.2318 80.3112C68.339 80.1792 67.843 79.3522 68.2398 78.4262L69.8601 74.7232C70.2239 73.8632 71.2819 73.2022 72.2408 73.3672L76.1096 73.9292C77.0024 74.0612 77.4985 74.8882 77.1017 75.8142L75.4814 79.5172C75.0846 80.4432 74.0596 81.0392 73.1007 80.8732ZM70.5876 78.3932L73.4974 78.8232L74.721 75.9792L71.811 75.5492L70.5876 78.3932Z" fill="#313131"/>
<path fill-rule="evenodd" clip-rule="evenodd" d="M56.5342 78.4269L52.6654 77.8649C51.7726 77.7329 51.2766 76.9059 51.6734 75.9799L53.2936 72.2769C53.6574 71.4169 54.7155 70.7559 55.6744 70.9209L59.5432 71.4829C60.436 71.6159 60.932 72.4419 60.5352 73.3679L58.915 77.0719C58.5182 77.9969 57.4931 78.5599 56.5342 78.4269ZM54.0211 75.9139L56.931 76.3439L58.1214 73.5669L55.2115 73.1369L54.0211 75.9139Z" fill="#313131"/>
<path fill-rule="evenodd" clip-rule="evenodd" d="M79.9454 65.0674L76.0766 64.5054C75.1838 64.3734 74.6878 63.5464 75.0846 62.6208L76.7049 58.9173C77.0686 58.0576 78.1267 57.3962 79.0857 57.5616L82.9875 58.0906C83.8803 58.2229 84.3763 59.0496 83.9795 59.9754L82.3593 63.6794C81.8633 64.6044 80.8382 65.2004 79.9454 65.0674ZM77.4654 62.5546L80.3753 62.9845L81.5988 60.1408L78.6889 59.7109L77.4654 62.5546Z" fill="#313131"/>
<path fill-rule="evenodd" clip-rule="evenodd" d="M55.7075 69.4328C55.1454 69.3338 54.8478 68.8048 55.1123 68.2758L56.7987 64.4068C57.0302 63.8778 57.7246 63.4808 58.2867 63.5468L65.859 64.6718L67.5454 60.8025C67.7769 60.2734 68.4713 59.8767 69.0334 59.9428C69.5955 60.042 69.8931 60.571 69.6286 61.1001L67.5123 65.9608C67.2809 66.4898 66.5865 66.8868 66.0243 66.8208L58.4521 65.6968L57.2286 68.5398C56.9641 69.1358 56.2697 69.5318 55.7075 69.4328Z" fill="#313131"/>
<path fill-rule="evenodd" clip-rule="evenodd" d="M71.547 64.1417C70.9848 64.0427 70.6872 63.5137 70.9518 62.9848L72.7704 58.8184L69.7944 58.3886C69.2323 58.2894 68.9347 57.7603 69.1992 57.2312C69.4307 56.7022 70.1251 56.3054 70.6872 56.3715L74.7214 56.9667C75.2835 57.0659 75.5811 57.595 75.3166 58.124L73.1011 63.2167C72.7704 63.8117 72.1091 64.2087 71.547 64.1417Z" fill="#313131"/>
<path fill-rule="evenodd" clip-rule="evenodd" d="M69.1987 69.5316C68.6366 69.4326 68.339 68.9036 68.6035 68.3746L69.5294 66.2256C69.7609 65.6966 70.4553 65.2996 71.0174 65.3656L76.2419 66.1256C76.8041 66.2256 77.1017 66.7546 76.8371 67.2836C76.6057 67.8126 75.9113 68.2096 75.3491 68.1436L71.2489 67.5476L70.7529 68.7056C70.4222 69.3006 69.7609 69.6316 69.1987 69.5316Z" fill="#313131"/>
<path fill-rule="evenodd" clip-rule="evenodd" d="M77.9614 70.8548C77.3993 70.7558 77.1017 70.2268 77.3662 69.6978L78.2921 67.5478C78.5236 67.0188 79.218 66.6228 79.7801 66.6888C80.3422 66.7878 80.6398 67.3168 80.3753 67.8458L79.4494 69.9948C79.1849 70.6238 78.5236 70.9208 77.9614 70.8548Z" fill="#313131"/>
<path fill-rule="evenodd" clip-rule="evenodd" d="M64.7354 70.7557L59.4116 69.9617C58.8495 69.8627 58.5519 69.3337 58.8164 68.8047C59.0479 68.2757 59.7423 67.8787 60.3044 67.9447L65.6282 68.7387C66.1903 68.8377 66.4879 69.3667 66.2234 69.8957C65.9588 70.4577 65.2975 70.8547 64.7354 70.7557Z" fill="#313131"/>
<path fill-rule="evenodd" clip-rule="evenodd" d="M69.2653 71.9454L67.7112 75.4834C67.4797 76.0124 66.7853 76.4094 66.2232 76.3434C65.661 76.2444 65.3634 75.7154 65.628 75.1864L67.1821 71.6484C67.4136 71.1194 68.108 70.7224 68.6701 70.7884C69.2322 70.8544 69.4968 71.3834 69.2653 71.9454Z" fill="#313131"/>
<path fill-rule="evenodd" clip-rule="evenodd" d="M74.39 72.3421L71.7446 71.9451C71.1825 71.8461 70.8849 71.3171 71.1494 70.7881C71.3809 70.2591 72.0753 69.8621 72.6374 69.9281L75.2828 70.3251C75.8449 70.4241 76.1425 70.9531 75.878 71.4821C75.6134 72.0441 74.9521 72.4411 74.39 72.3421Z" fill="#313131"/>
<path fill-rule="evenodd" clip-rule="evenodd" d="M63.2139 79.4183L60.9653 79.0883C60.4032 78.9883 60.1056 78.4593 60.3701 77.9303L62.4864 73.0703C62.7179 72.5403 63.4123 72.1443 63.9744 72.2103C64.5365 72.3093 64.8341 72.8383 64.5696 73.3673L62.8832 77.2363L64.0736 77.4013C64.6357 77.5003 64.9333 78.0303 64.6688 78.5593C64.4373 79.1213 63.8421 79.5183 63.2139 79.4183Z" fill="#313131"/>
<path fill-rule="evenodd" clip-rule="evenodd" d="M94.1974 56.4372L93.8994 56.3711C93.9984 56.4041 94.0974 56.4041 94.1974 56.4372Z" fill="#292929"/>
<path fill-rule="evenodd" clip-rule="evenodd" d="M40.7285 83.3866L83.4507 89.7026L108.349 32.2328L65.6277 25.917L40.7285 83.3866Z" fill="#BFBFBF"/>
<path d="M44.8945 81.0729L67.3798 29.0918L104.183 34.5478" stroke="white" stroke-width="2.51821" stroke-linecap="round" stroke-linejoin="round"/>
<path fill-rule="evenodd" clip-rule="evenodd" d="M65.6277 25.917L108.349 32.2328L83.4507 89.7026L40.7285 83.3866L65.6277 25.917Z" stroke="#5A5A5B" stroke-width="2.09846" stroke-linecap="round" stroke-linejoin="round"/>
<path fill-rule="evenodd" clip-rule="evenodd" d="M65.4341 95.0286C65.9248 98.0386 63.1371 100.999 59.2077 101.639C55.2783 102.28 51.6952 100.359 51.2045 97.3486C50.7138 94.3386 53.5014 91.3786 57.4308 90.7386C61.3602 90.0976 64.9434 92.0186 65.4341 95.0286Z" fill="#58DBC2"/>
<path fill-rule="evenodd" clip-rule="evenodd" d="M65.4341 95.0286C65.9248 98.0386 63.1371 100.999 59.2077 101.639C55.2783 102.28 51.6952 100.359 51.2045 97.3486C50.7138 94.3386 53.5014 91.3786 57.4308 90.7386C61.3602 90.0976 64.9434 92.0186 65.4341 95.0286Z" stroke="#585857" stroke-width="2.0985" stroke-linecap="round" stroke-linejoin="round"/>
<path fill-rule="evenodd" clip-rule="evenodd" d="M142.719 31.3216L141.477 28.4779L114.05 23.5327L112.681 25.156L68.2401 18.5757C65.5617 18.1789 62.4203 19.9645 61.2961 22.5437L27.7003 100.283L23.4678 102.954V107.109C23.8279 108.532 24.9889 109.027 26.4438 109.258L101.604 120.256C104.282 120.652 107.424 118.867 108.548 116.288L143.466 35.572C144.028 34.2493 143.281 32.3136 142.719 31.3216Z" fill="#6E6E6E" stroke="#585857" stroke-width="2.0985" stroke-linecap="round" stroke-linejoin="round"/>
<path fill-rule="evenodd" clip-rule="evenodd" d="M23.874 100.505C22.7498 103.084 24.0394 105.531 26.7508 105.928L99.1754 116.578C101.854 116.975 104.995 115.19 106.119 112.61L141.071 31.8942C142.195 29.315 140.906 26.8681 138.194 26.4713L65.7695 15.8208C63.0911 15.424 59.9498 17.2096 58.8255 19.7888L23.874 100.505Z" fill="#9B9B9B" stroke="#585857" stroke-width="2.0985" stroke-linecap="round" stroke-linejoin="round"/>
<path d="M27.5813 102.954C27.3829 102.921 26.9861 102.822 26.8538 102.591C26.7215 102.359 26.7546 101.962 26.953 101.532L61.9045 20.8168C62.4005 19.6595 63.8554 18.6675 65.1781 18.5352C65.3765 18.5022 65.5749 18.5352 65.7733 18.5352L116.001 25.9422" stroke="white" stroke-width="2.51821" stroke-linecap="round" stroke-linejoin="round"/>
<path fill-rule="evenodd" clip-rule="evenodd" d="M67.3408 22.709L133.058 32.3467L99.9844 107.932L34.2666 98.2941L67.3408 22.709Z" fill="#96BEF4" stroke="#5A5A5B" stroke-width="2.09846" stroke-linecap="round" stroke-linejoin="round"/>
<path fill-rule="evenodd" clip-rule="evenodd" d="M2.59531 34.507C5.67761 49.0078 19.9556 58.2801 34.4564 55.1978C39.7443 54.0738 44.3146 51.45 47.8899 47.8981L58.8523 49.6134C58.9729 49.6447 59.1364 49.6101 59.2454 49.5869C60.0086 49.4247 60.5238 48.6313 60.3616 47.8681C60.3268 47.7046 60.2375 47.5526 60.1482 47.4007L60.1366 47.3463L60.1251 47.2917L53.9739 38.4572C55.7761 33.8009 56.2596 28.5701 55.1356 23.2822C52.0534 8.78135 37.7754 -0.490849 23.2746 2.59135C8.7737 5.67365 -0.498493 19.9516 2.59531 34.507Z" fill="white"/>
<path fill-rule="evenodd" clip-rule="evenodd" d="M2.59531 34.507C5.67761 49.0078 19.9556 58.2801 34.4564 55.1978C39.7443 54.0738 44.3146 51.45 47.8899 47.8981L58.8523 49.6134C58.9729 49.6447 59.1364 49.6101 59.2454 49.5869C60.0086 49.4247 60.5238 48.6313 60.3616 47.8681C60.3268 47.7046 60.2375 47.5526 60.1482 47.4007L60.1366 47.3463L60.1251 47.2917L53.9739 38.4572C55.7761 33.8009 56.2596 28.5701 55.1356 23.2822C52.0534 8.78135 37.7754 -0.490849 23.2746 2.59135C8.7737 5.67365 -0.498493 19.9517 2.59531 34.507Z" stroke="#5F6060" stroke-width="2.1" stroke-linecap="round" stroke-linejoin="round"/>
<path fill-rule="evenodd" clip-rule="evenodd" d="M35.9525 28.5897L31.5497 34.9432C31.5497 34.9432 30.9366 35.9464 29.5991 35.9464H28.5959C28.4844 35.9464 28.373 35.9464 28.3172 35.9464C27.2026 35.8349 26.6453 34.9989 26.6453 34.9432L22.1309 28.7012C21.072 27.2521 20.459 25.5244 20.459 23.741C20.459 21.456 21.295 19.2824 22.9112 17.6662C24.5274 16.0499 26.6453 15.1025 28.9303 15.1025C29.2647 15.1025 29.5991 15.1025 29.9335 15.1582C34.2248 15.6598 37.5131 19.2824 37.5688 23.5738C37.5131 25.413 36.9557 27.1407 35.9525 28.5897ZM32.7201 23.6295C32.7201 21.7346 31.2711 20.1184 29.3204 19.8955C29.1532 19.8955 29.0418 19.8955 28.8746 19.8955C27.8714 19.8955 26.9239 20.2856 26.1994 21.0101C25.4749 21.7346 25.0848 22.6821 25.0848 23.6853C25.0848 24.4655 25.3634 25.2458 25.8093 25.9146L28.9303 30.2059L31.9956 25.8588C32.4972 25.19 32.7201 24.4655 32.7201 23.6295Z" fill="#F1CB3A"/>
<path fill-rule="evenodd" clip-rule="evenodd" d="M28.9299 37.5625C27.4251 37.5625 26.3105 38.7329 26.3105 40.1819C26.3105 41.5195 27.3136 42.5784 28.6512 42.6899C28.7627 42.6899 28.8742 42.6899 28.9856 42.6899C30.4904 42.6899 31.6608 41.5195 31.605 40.0704C31.605 38.6771 30.4347 37.5625 28.9299 37.5625Z" fill="#F1CB3A"/>
<path d="M73.5223 38.2907C75.18 38.5532 76.7366 37.4223 76.9991 35.7647C77.2617 34.107 76.1307 32.5504 74.4731 32.2879C72.8155 32.0253 71.2588 33.1563 70.9963 34.8139C70.7338 36.4715 71.8647 38.0282 73.5223 38.2907Z" fill="white"/>
<path d="M66.0321 55.1481C67.6897 55.4107 69.2464 54.2797 69.5089 52.6221C69.7714 50.9645 68.6405 49.4078 66.9829 49.1453C65.3252 48.8828 63.7686 50.0137 63.5061 51.6713C63.2435 53.329 64.3745 54.8856 66.0321 55.1481Z" fill="#FFC244"/>
<path d="M57.2284 73.6042C58.886 73.8667 60.4426 72.7358 60.7052 71.0781C60.9677 69.4205 59.8368 67.8639 58.1791 67.6014C56.5215 67.3388 54.9649 68.4698 54.7024 70.1274C54.4398 71.785 55.5708 73.3416 57.2284 73.6042Z" fill="white"/>
<path d="M49.7382 92.0593C51.3958 92.3218 52.9524 91.1909 53.215 89.5332C53.4775 87.8756 52.3466 86.319 50.6889 86.0564C49.0313 85.7939 47.4747 86.9248 47.2121 88.5825C46.9496 90.2401 48.0805 91.7967 49.7382 92.0593Z" fill="white"/>
<path d="M114.112 38.5655L84.4612 33.8692C82.8571 33.6151 81.3507 34.7096 81.0966 36.3138L81.0659 36.5074C80.8119 38.1116 81.9063 39.618 83.5105 39.8721L113.161 44.5683C114.766 44.8224 116.272 43.7279 116.526 42.1237L116.557 41.9301C116.811 40.3259 115.716 38.8195 114.112 38.5655Z" fill="white"/>
<path d="M106.623 55.4239L76.972 50.7276C75.3678 50.4735 73.8614 51.568 73.6073 53.1722L73.5767 53.3658C73.3226 54.97 74.4171 56.4764 76.0212 56.7304L105.672 61.4267C107.276 61.6808 108.783 60.5863 109.037 58.9821L109.067 58.7885C109.321 57.1843 108.227 55.6779 106.623 55.4239Z" fill="#FFC244"/>
<path d="M97.8182 73.8789L68.1673 69.1827C66.5631 68.9286 65.0567 70.0231 64.8027 71.6273L64.772 71.8209C64.5179 73.4251 65.6124 74.9315 67.2165 75.1855L96.8674 79.8818C98.4716 80.1358 99.978 79.0414 100.232 77.4372L100.263 77.2436C100.517 75.6394 99.4224 74.133 97.8182 73.8789Z" fill="white"/>
<path d="M90.3279 92.335L60.6771 87.6388C59.0729 87.3847 57.5665 88.4791 57.3124 90.0833L57.2817 90.277C57.0277 91.8811 58.1221 93.3875 59.7263 93.6416L89.3772 98.3378C90.9814 98.5919 92.4878 97.4974 92.7418 95.8933L92.7725 95.6996C93.0266 94.0955 91.9321 92.5891 90.3279 92.335Z" fill="white"/>
<path d="M111.564 45.5303L81.9134 40.8341C80.3092 40.58 78.8028 41.6745 78.5487 43.2786L78.5181 43.4723C78.264 45.0764 79.3585 46.5828 80.9626 46.8369L110.614 51.5331C112.218 51.7872 113.724 50.6927 113.978 49.0886L114.009 48.8949C114.263 47.2908 113.168 45.7844 111.564 45.5303Z" fill="white"/>
<path d="M104.074 62.3887L74.4231 57.6925C72.819 57.4384 71.3126 58.5328 71.0585 60.137L71.0278 60.3307C70.7738 61.9348 71.8682 63.4412 73.4724 63.6953L103.123 68.3915C104.727 68.6456 106.234 67.5511 106.488 65.947L106.519 65.7533C106.773 64.1492 105.678 62.6428 104.074 62.3887Z" fill="#FFC244"/>
<path d="M95.2694 80.8438L65.6185 76.1475C64.0143 75.8935 62.5079 76.9879 62.2538 78.5921L62.2232 78.7857C61.9691 80.3899 63.0635 81.8963 64.6677 82.1504L94.3186 86.8466C95.9228 87.1007 97.4292 86.0062 97.6832 84.4021L97.7139 84.2084C97.968 82.6042 96.8735 81.0979 95.2694 80.8438Z" fill="white"/>
</svg>
