<svg width="111" height="128" viewBox="0 0 111 128" fill="none" xmlns="http://www.w3.org/2000/svg">
<path fill-rule="evenodd" clip-rule="evenodd" d="M68.7685 112.263L56.3855 31.3342C56.1005 29.4762 55.0902 27.8073 53.5755 26.6944C52.0607 25.5815 50.166 25.1158 48.3079 25.3998L7.22298 31.6929C6.30238 31.8336 5.41858 32.1546 4.62218 32.6375C3.82588 33.1204 3.13268 33.7556 2.58228 34.5069C2.03188 35.2582 1.63518 36.1106 1.41488 37.0155C1.19448 37.9204 1.15488 38.8598 1.29828 39.78L13.681 120.709C13.8206 121.628 14.1402 122.511 14.6214 123.307C15.1027 124.102 15.7362 124.795 16.4856 125.345C17.235 125.896 18.0856 126.293 18.9888 126.514C19.8919 126.735 20.8297 126.776 21.7486 126.634L62.8435 120.35C63.7635 120.208 64.6465 119.887 65.4425 119.403C66.2375 118.92 66.9305 118.285 67.4805 117.534C68.0305 116.783 68.4275 115.931 68.6485 115.027C68.8695 114.122 68.9105 113.183 68.7685 112.263Z" fill="#2DABD4"/>
<path d="M20.6628 127.913C18.6828 127.91 16.7692 127.199 15.2681 125.908C13.767 124.616 12.7776 122.831 12.4788 120.873L0.0960975 39.9443C-0.0693025 38.8676 -0.0208045 37.7689 0.238596 36.7109C0.498095 35.6529 0.963497 34.6564 1.6083 33.7784C2.2531 32.9004 3.0646 32.1581 3.9964 31.5938C4.9282 31.0296 5.9621 30.6545 7.039 30.49L48.1336 24.2066C50.3063 23.878 52.5205 24.4244 54.291 25.7259C56.0615 27.0273 57.2435 28.9777 57.5785 31.1494L69.9605 112.078C70.2925 114.251 69.7485 116.467 68.4495 118.239C67.1495 120.011 65.1995 121.196 63.0275 121.533L21.9428 127.816C21.5194 127.882 21.0914 127.915 20.6628 127.913ZM49.3845 26.5338C49.0858 26.5326 48.7875 26.5553 48.4924 26.6017L7.4074 32.8851C5.8689 33.1218 4.4871 33.9592 3.5654 35.2136C2.6437 36.468 2.2573 38.0369 2.4912 39.5759L14.8739 120.505C15.1105 122.043 15.948 123.425 17.2024 124.347C18.4568 125.269 20.0257 125.655 21.5646 125.421L62.6595 119.138C64.1965 118.899 65.5755 118.06 66.4955 116.806C67.4145 115.552 67.7995 113.984 67.5655 112.447L55.1832 31.5179C54.9703 30.1319 54.2688 28.8677 53.2054 27.9537C52.142 27.0397 50.7868 26.536 49.3845 26.5338Z" fill="#575756"/>
<path fill-rule="evenodd" clip-rule="evenodd" d="M49.3937 27.6498C50.495 27.4913 51.6143 27.7743 52.5078 28.4372C53.4014 29.1001 53.9968 30.0892 54.1645 31.1891L66.5765 113.243C66.7345 114.253 66.5185 115.287 65.9685 116.149C65.4185 117.012 64.5725 117.644 63.5895 117.927C63.4255 117.977 63.2565 118.013 63.0855 118.033C63.0005 118.045 62.9195 118.074 62.8455 118.117C62.7715 118.161 62.7075 118.218 62.6555 118.287C62.6045 118.355 62.5675 118.433 62.5465 118.516C62.5255 118.599 62.5205 118.685 62.5325 118.77C62.5595 118.94 62.6515 119.093 62.7885 119.197C62.9265 119.3 63.0995 119.345 63.2695 119.323C63.4925 119.323 63.7255 119.236 63.9485 119.177C65.2315 118.802 66.3335 117.972 67.0475 116.841C67.7625 115.711 68.0395 114.359 67.8275 113.039L55.4445 30.9952C55.2264 29.5565 54.4488 28.2623 53.2811 27.3942C52.1134 26.5261 50.65 26.1545 49.2095 26.3601L7.93058 32.6436C7.71078 32.6824 7.48778 32.7309 7.26148 32.789C7.17878 32.8104 7.10118 32.848 7.03328 32.8998C6.96538 32.9516 6.90848 33.0164 6.86598 33.0905C6.82348 33.1646 6.79628 33.2465 6.78598 33.3313C6.77558 33.416 6.78238 33.502 6.80578 33.5842C6.85118 33.7498 6.96028 33.8907 7.10928 33.9761C7.25828 34.0615 7.43498 34.0845 7.60088 34.0399L8.12448 33.9624L49.3937 27.6886V27.6498Z" fill="white"/>
<path fill-rule="evenodd" clip-rule="evenodd" d="M7.84361 37.6658H7.97931C8.06731 37.6362 8.15841 37.6167 8.25081 37.6076L49.3358 31.3144C49.8929 31.236 50.4588 31.3749 50.9164 31.7023C51.3707 32.0383 51.6739 32.5401 51.76 33.0986L57.1225 67.832L61.5735 96.631L62.4065 103.817C62.4565 104.093 62.4495 104.377 62.3865 104.651C62.3235 104.924 62.2045 105.182 62.0385 105.409C61.8735 105.636 61.6625 105.826 61.4215 105.969C61.1795 106.112 60.9115 106.205 60.6325 106.241L54.7466 107.143L45.399 108.578L19.5572 112.505C19.2815 112.548 19.0001 112.536 18.729 112.47C18.4579 112.404 18.2026 112.285 17.9774 112.12C17.7523 111.955 17.5618 111.748 17.417 111.509C17.2721 111.271 17.1756 111.006 17.133 110.731L14.544 92.4809L13.2543 84.103L10.3453 65.301L6.46661 39.9833C6.39431 39.4975 6.49181 39.0017 6.74271 38.5795C6.99351 38.1572 7.38241 37.8345 7.84361 37.6658Z" fill="white"/>
<path d="M19.2273 113.717C18.5284 113.711 17.8495 113.483 17.2879 113.067C16.5754 112.54 16.1011 111.752 15.9692 110.876L13.4189 92.6464L5.28338 40.1678C5.17008 39.4142 5.31678 38.6444 5.69918 37.9853C6.08168 37.3262 6.67708 36.8168 7.38758 36.5412L7.64938 36.4539C7.79128 36.4072 7.93738 36.3748 8.08568 36.3569L49.1513 30.0832C50.0257 29.9496 50.9173 30.1687 51.6302 30.6924C52.343 31.2161 52.8186 32.0015 52.9524 32.8758L62.7655 96.3994L63.6185 103.632C63.7485 104.494 63.5325 105.372 63.0175 106.076C62.7525 106.431 62.4195 106.731 62.0385 106.957C61.6575 107.183 61.2355 107.332 60.7975 107.395L19.7412 113.678C19.5707 113.7 19.3991 113.713 19.2273 113.717ZM49.6556 32.4589H49.5198L8.26028 38.8102C8.07408 38.8907 7.91778 39.0275 7.81338 39.2015C7.70898 39.3754 7.66178 39.5777 7.67848 39.7799L15.7849 92.2784L18.3352 110.566C18.378 110.8 18.5057 111.011 18.6939 111.157C18.8919 111.294 19.1338 111.353 19.3727 111.322L60.4485 105.029C60.5685 105.016 60.6845 104.978 60.7895 104.918C60.8945 104.858 60.9865 104.777 61.0585 104.68C61.1955 104.485 61.2515 104.245 61.2145 104.011L60.3605 96.7674L50.5574 33.2346C50.5168 32.9965 50.3889 32.7821 50.1986 32.6334C50.0409 32.5186 49.8506 32.4575 49.6556 32.4589Z" fill="#575756"/>
<path fill-rule="evenodd" clip-rule="evenodd" d="M37.2725 116.228C37.2725 117.187 37.5568 118.125 38.0896 118.922C38.6223 119.719 39.3795 120.341 40.2655 120.708C41.1514 121.075 42.1262 121.171 43.0667 120.983C44.0072 120.796 44.8711 120.335 45.5491 119.657C46.2272 118.979 46.689 118.115 46.876 117.174C47.0631 116.234 46.9671 115.259 46.6001 114.373C46.2332 113.487 45.6117 112.73 44.8144 112.197C44.0171 111.664 43.0797 111.38 42.1208 111.38C40.835 111.38 39.6018 111.891 38.6925 112.8C37.7833 113.709 37.2725 114.942 37.2725 116.228Z" fill="#2DABD4"/>
<path d="M42.1413 122.308C40.9384 122.31 39.762 121.955 38.7609 121.288C37.7598 120.621 36.979 119.672 36.5174 118.562C36.0557 117.451 35.9339 116.228 36.1674 115.048C36.4009 113.868 36.9792 112.784 37.8291 111.933C38.679 111.081 39.7623 110.501 40.9419 110.266C42.1216 110.031 43.3445 110.15 44.456 110.61C45.5675 111.07 46.5177 111.85 47.1861 112.85C47.8546 113.85 48.2115 115.025 48.2115 116.228C48.2115 117.839 47.5722 119.384 46.4341 120.524C45.2961 121.664 43.7521 122.306 42.1413 122.308ZM42.1413 112.611C41.4179 112.61 40.7101 112.822 40.1077 113.223C39.5053 113.623 39.0352 114.194 38.757 114.861C38.4788 115.529 38.4051 116.265 38.545 116.974C38.685 117.684 39.0324 118.336 39.5432 118.849C40.0541 119.361 40.7055 119.71 41.4149 119.852C42.1243 119.994 42.8598 119.922 43.5283 119.645C44.1969 119.369 44.7684 118.9 45.1705 118.299C45.5726 117.698 45.7873 116.991 45.7873 116.267C45.7924 115.785 45.7019 115.306 45.5211 114.858C45.3403 114.411 45.0727 114.004 44.7338 113.66C44.3948 113.317 43.9913 113.044 43.5463 112.857C43.1014 112.671 42.6238 112.574 42.1413 112.573V112.611Z" fill="#575756"/>
<path d="M44.2934 119.7C44.1755 119.699 44.0594 119.671 43.9537 119.619C43.8479 119.567 43.7552 119.492 43.6825 119.399C43.5559 119.238 43.4981 119.034 43.5217 118.83C43.5453 118.627 43.6484 118.441 43.8086 118.313C44.083 118.096 44.3118 117.826 44.482 117.52C44.6522 117.214 44.7604 116.877 44.8005 116.529C44.8406 116.181 44.8117 115.828 44.7155 115.492C44.6194 115.155 44.4578 114.84 44.2401 114.566C44.0223 114.291 43.7526 114.062 43.4464 113.892C43.1403 113.722 42.8035 113.614 42.4555 113.574C42.1075 113.534 41.755 113.562 41.4182 113.659C41.0813 113.755 40.7667 113.916 40.4923 114.134C40.4131 114.198 40.3219 114.246 40.2241 114.274C40.1264 114.302 40.0239 114.311 39.9228 114.299C39.8217 114.287 39.7239 114.255 39.6352 114.205C39.5465 114.156 39.4687 114.088 39.4062 114.008C39.2796 113.847 39.2218 113.643 39.2454 113.439C39.269 113.236 39.3722 113.05 39.5323 112.922C39.9625 112.548 40.4639 112.265 41.0064 112.091C41.5489 111.916 42.1212 111.853 42.6887 111.906C43.2562 111.958 43.8072 112.125 44.3083 112.397C44.8095 112.668 45.2504 113.038 45.6045 113.485C45.9587 113.931 46.2186 114.445 46.3687 114.995C46.5187 115.545 46.5558 116.119 46.4777 116.684C46.3996 117.248 46.2078 117.791 45.9141 118.28C45.6203 118.768 45.2306 119.192 44.7685 119.525C44.6357 119.638 44.4674 119.7 44.2934 119.7Z" fill="white"/>
<path fill-rule="evenodd" clip-rule="evenodd" d="M45.2432 52.0267C45.4876 51.3188 45.4635 50.5458 45.1754 49.8546C42.1879 42.532 41.9067 34.3846 44.3821 26.8734C46.8576 19.3622 51.9278 12.9785 58.6835 8.86699C65.4395 4.75549 73.4395 3.18509 81.2475 4.43739C89.0565 5.68969 96.1645 9.68279 101.295 15.7007C106.426 21.7186 109.246 29.3676 109.249 37.2762C109.251 45.1848 106.437 52.8357 101.309 58.8569C96.1825 64.8783 89.0775 68.8763 81.2695 70.1333C73.4615 71.3903 65.4605 69.8253 58.7025 65.7183C58.0615 65.3183 57.2945 65.1693 56.5495 65.3013L44.3996 67.5803C43.8984 67.6733 43.3815 67.6333 42.9007 67.4633C42.4199 67.2943 41.9921 67.0013 41.6601 66.6143C41.3282 66.2273 41.1037 65.7603 41.0093 65.2593C40.9149 64.7583 40.9538 64.2413 41.1221 63.7597L45.2432 52.0267Z" fill="#CBCACA"/>
<path d="M75.9915 71.7797C69.6705 71.7857 63.4695 70.0477 58.0725 66.7567C57.6825 66.5227 57.2225 66.4337 56.7725 66.5037L44.6036 68.7737C43.8925 68.9067 43.1589 68.8497 42.4765 68.6097C41.7942 68.3687 41.1871 67.9537 40.7164 67.4037C40.2456 66.8547 39.9278 66.1907 39.7948 65.4797C39.6619 64.7687 39.7184 64.0347 39.9589 63.3528L44.08 51.6294C44.2393 51.2076 44.2393 50.7422 44.08 50.3204C41.2843 43.4737 40.7627 35.9098 42.5921 28.7442C44.4214 21.5786 48.5048 15.1904 54.2403 10.5216C59.9755 5.85276 67.0595 3.15056 74.4475 2.81326C81.8355 2.47596 89.1355 4.52156 95.2725 8.64826C101.409 12.7751 106.058 18.7646 108.532 25.7338C111.007 32.7029 111.177 40.2828 109.017 47.3558C106.857 54.4287 102.481 60.6203 96.5355 65.0177C90.5895 69.4147 83.3875 71.7857 75.9915 71.7797ZM57.0835 64.0218C57.8785 64.0209 58.6575 64.2427 59.3325 64.6617C65.8385 68.6017 73.5345 70.0967 81.0415 68.8767C88.5485 67.6577 95.3755 63.8044 100.299 58.0077C105.223 52.211 107.921 44.8502 107.91 37.2446C107.899 29.6391 105.179 22.2862 100.238 16.5041C95.2975 10.722 88.4585 6.88876 80.9475 5.69166C73.4375 4.49446 65.7455 6.01166 59.2525 9.97116C52.7584 13.9308 47.8875 20.0737 45.5123 27.2989C43.1372 34.5241 43.4132 42.359 46.2908 49.3992C46.6945 50.3613 46.7291 51.4386 46.3878 52.4246L42.2667 64.1577C42.1661 64.4407 42.1426 64.7457 42.1986 65.0417C42.2546 65.3367 42.388 65.6117 42.5853 65.8387C42.7826 66.0657 43.0366 66.2357 43.3214 66.3327C43.6062 66.4287 43.9115 66.4477 44.206 66.3877L56.3565 64.1087C56.5955 64.0577 56.8385 64.0287 57.0835 64.0218Z" fill="#575756"/>
<path d="M47.5615 38.4128C47.3043 38.4128 47.0577 38.3107 46.8758 38.1288C46.694 37.947 46.5918 37.7003 46.5918 37.4432C46.5995 29.6018 49.7179 22.0837 55.2626 16.539C60.8075 10.9943 68.3255 7.87586 76.1665 7.86816C76.4235 7.86816 76.6705 7.97026 76.8525 8.15216C77.0345 8.33396 77.1365 8.58066 77.1365 8.83786C77.1365 9.09496 77.0345 9.34166 76.8525 9.52346C76.6705 9.70536 76.4235 9.80746 76.1665 9.80746C68.8395 9.81516 61.8145 12.7293 56.6335 17.9103C51.4529 23.0913 48.5389 30.1161 48.5312 37.4432C48.5312 37.7003 48.429 37.947 48.2471 38.1288C48.0653 38.3107 47.8187 38.4128 47.5615 38.4128Z" fill="white"/>
<path d="M76.1665 63.1387C90.3575 63.1387 101.863 51.6341 101.863 37.4424C101.863 23.2508 90.3575 11.7461 76.1665 11.7461C61.9745 11.7461 50.4697 23.2508 50.4697 37.4424C50.4697 51.6341 61.9745 63.1387 76.1665 63.1387Z" fill="white"/>
<path opacity="0.3" d="M76.1665 63.1387C71.0835 63.1387 66.1155 61.6316 61.8895 58.808C57.6645 55.9845 54.3707 51.9713 52.4258 47.2759C50.4809 42.5805 49.972 37.4139 50.9635 32.4293C51.955 27.4447 54.4023 22.866 57.9965 19.2723C61.5895 15.6786 66.1685 13.2313 71.1525 12.2398C76.1375 11.2483 81.3045 11.7572 85.9995 13.7021C90.6945 15.647 94.7085 18.9405 97.5315 23.1663C100.355 27.392 101.862 32.3601 101.862 37.4424C101.854 44.2551 99.1445 50.7866 94.3275 55.6039C89.5105 60.4212 82.9785 63.131 76.1665 63.1387ZM76.1665 13.6854C71.4675 13.6854 66.8745 15.0787 62.9675 17.6892C59.0605 20.2996 56.0155 24.0099 54.2175 28.351C52.4194 32.692 51.9489 37.4687 52.8656 42.0771C53.7822 46.6855 56.0445 50.9186 59.3675 54.2411C62.6895 57.5635 66.9225 59.8262 71.5315 60.7428C76.1395 61.6595 80.9165 61.189 85.2575 59.3909C89.5985 57.5928 93.3085 54.5478 95.9195 50.641C98.5295 46.7342 99.9235 42.141 99.9235 37.4424C99.9155 31.144 97.4095 25.1058 92.9565 20.6522C88.5025 16.1985 82.4645 13.6931 76.1665 13.6854Z" fill="white"/>
<path d="M99.4576 75.0186L101.281 72.9726L104.006 73.3406C104.075 73.3466 104.144 73.3316 104.203 73.2966C104.263 73.2616 104.31 73.2086 104.338 73.1456C104.366 73.0816 104.373 73.0116 104.359 72.9436C104.344 72.8766 104.309 72.8146 104.258 72.7686L102.212 70.9356L102.58 68.2206C102.585 68.1476 102.568 68.0746 102.532 68.0116C102.496 67.9476 102.442 67.8956 102.377 67.8616C102.309 67.8276 102.232 67.8176 102.158 67.8336C102.083 67.8486 102.017 67.8896 101.97 67.9496L100.147 69.9856L97.4216 69.6166C97.3496 69.6126 97.2776 69.6286 97.2146 69.6626C97.1516 69.6976 97.0986 69.7486 97.0626 69.8106C97.0276 69.8796 97.0166 69.9586 97.0326 70.0346C97.0486 70.1106 97.0896 70.1786 97.1496 70.2276L99.1956 72.0506L98.8376 74.7756C98.8336 74.8466 98.8496 74.9166 98.8846 74.9776C98.9186 75.0396 98.9696 75.0906 99.0306 75.1246C99.1476 75.2026 99.3606 75.1246 99.4576 75.0186Z" fill="#FFC244"/>
<path d="M99.1383 75.7355C98.9993 75.7365 98.8623 75.7035 98.7403 75.6385C98.5833 75.5485 98.4543 75.4165 98.3693 75.2565C98.2833 75.0975 98.2443 74.9175 98.2553 74.7365L98.5753 72.2835L96.7623 70.6645C96.6093 70.5205 96.5063 70.3325 96.4703 70.1255C96.4333 69.9195 96.4643 69.7065 96.5583 69.5195C96.6483 69.3625 96.7813 69.2345 96.9403 69.1485C97.0993 69.0635 97.2793 69.0235 97.4603 69.0355L99.9133 69.3645L101.533 67.5615C101.669 67.4015 101.857 67.2945 102.064 67.2575C102.27 67.2205 102.484 67.2555 102.667 67.3575C102.824 67.4455 102.954 67.5755 103.041 67.7335C103.129 67.8905 103.17 68.0695 103.162 68.2495L102.832 70.7125L104.645 72.3315C104.795 72.4645 104.896 72.6435 104.933 72.8405C104.97 73.0365 104.94 73.2395 104.849 73.4175C104.766 73.5965 104.625 73.7425 104.449 73.8325C104.274 73.9225 104.073 73.9505 103.879 73.9125L101.484 73.5925L99.8743 75.4155C99.6813 75.6145 99.4163 75.7295 99.1383 75.7355ZM98.1003 70.2955L99.8163 71.7795L99.5163 74.0385L101.057 72.3125L103.259 72.6135L101.6 71.1295L101.901 68.8605L100.369 70.5675L98.1003 70.2955Z" fill="#575756"/>
<path d="M50.936 8.29427L52.119 5.84097L54.834 5.42397C54.9025 5.41177 54.9653 5.37827 55.0135 5.32827C55.0618 5.27817 55.093 5.21417 55.1026 5.14537C55.1123 5.07647 55.1 5.00637 55.0674 4.94497C55.0349 4.88357 54.9837 4.83397 54.9213 4.80337L52.439 3.61077L52.0317 0.89567C52.0138 0.82657 51.9771 0.763671 51.9258 0.714071C51.8745 0.664471 51.8105 0.62997 51.7408 0.61447C51.6663 0.59747 51.5883 0.607671 51.5207 0.643271C51.4531 0.678871 51.4005 0.737371 51.3723 0.808371L50.1893 3.28107L47.513 3.68827C47.4434 3.70517 47.38 3.74147 47.3302 3.79297C47.2805 3.84447 47.2463 3.90907 47.2318 3.97917C47.2186 4.05347 47.2305 4.12997 47.2656 4.19667C47.3008 4.26337 47.3571 4.31657 47.4258 4.34767L49.9081 5.52097L50.3154 8.24577C50.3333 8.31487 50.3699 8.37767 50.4213 8.42727C50.4726 8.47687 50.5366 8.51137 50.6063 8.52697C50.6846 8.52657 50.7613 8.50467 50.828 8.46367C50.8947 8.42257 50.9488 8.36397 50.9845 8.29427H50.936Z" fill="#FFC244"/>
<path d="M50.6057 9.10891C50.5447 9.11901 50.4824 9.11901 50.4214 9.10891C50.2472 9.06721 50.0879 8.97811 49.9613 8.85141C49.8346 8.72481 49.7455 8.56551 49.7039 8.39131L49.3257 5.93801L47.1245 4.87141C46.9337 4.78311 46.7793 4.63161 46.6874 4.44251C46.5955 4.25341 46.5718 4.03841 46.6203 3.83381C46.662 3.65961 46.7511 3.50041 46.8777 3.37371C47.0044 3.24701 47.1637 3.15791 47.3379 3.11631L49.8008 2.74781L50.8481 0.556312C50.928 0.359712 51.0753 0.198011 51.2637 0.100311C51.4521 0.00251074 51.6692 -0.0248865 51.8759 0.0230135C52.0501 0.0647135 52.2094 0.15381 52.3361 0.28041C52.4627 0.40711 52.5518 0.566411 52.5935 0.740611L52.9717 3.19391L55.1728 4.27021C55.3485 4.35711 55.4915 4.49841 55.5805 4.67311C55.6695 4.84781 55.7005 5.04651 55.6675 5.23991C55.6395 5.42961 55.5505 5.60511 55.4145 5.73981C55.2775 5.87451 55.1011 5.96111 54.911 5.98651L52.5062 6.34531L51.4493 8.56581C51.3715 8.72471 51.2518 8.85921 51.1031 8.95491C50.9545 9.05061 50.7824 9.10391 50.6057 9.10891ZM48.3172 4.14411L50.3826 5.11381L50.7317 7.36341L51.7014 5.27861L53.9122 4.94901L51.8953 3.97931L51.5462 1.71031L50.5766 3.77571L48.3172 4.14411Z" fill="#575756"/>
<path d="M40.1139 50.5817L38.1745 48.6423L38.6885 45.937C38.6937 45.8697 38.6787 45.8023 38.6455 45.7436C38.6123 45.6848 38.5623 45.6373 38.5019 45.6071C38.4415 45.5769 38.3735 45.5654 38.3065 45.5741C38.2396 45.5828 38.1768 45.6112 38.1261 45.6558L36.1867 47.5951L33.4813 47.0812C33.411 47.0715 33.3393 47.0829 33.2754 47.114C33.2116 47.145 33.1584 47.1944 33.1225 47.2557C33.0821 47.3211 33.0658 47.3986 33.0764 47.4747C33.087 47.5508 33.1239 47.6209 33.1807 47.6727L35.1201 49.612L34.5965 52.3174C34.5885 52.389 34.6006 52.4613 34.6314 52.5264C34.6622 52.5915 34.7106 52.6467 34.771 52.6859C34.8384 52.7217 34.9156 52.7344 34.9909 52.7222C35.0662 52.7099 35.1354 52.6733 35.188 52.618L37.1273 50.6787L39.823 51.1926C39.8952 51.1974 39.9675 51.1829 40.0322 51.1505C40.097 51.1181 40.152 51.069 40.1915 51.0083C40.269 50.892 40.1915 50.6787 40.0945 50.572L40.1139 50.5817Z" fill="#FFC244"/>
<path d="M34.956 53.3553C34.7876 53.3585 34.6221 53.3112 34.4809 53.2195C34.3216 53.118 34.1954 52.9721 34.1179 52.7998C34.0404 52.6276 34.0149 52.4364 34.0445 52.2499L34.5099 49.8063L32.7936 48.09C32.6395 47.9463 32.5406 47.7532 32.5141 47.5441C32.4875 47.3351 32.5349 47.1234 32.6482 46.9457C32.7461 46.7947 32.8841 46.6738 33.0468 46.5968C33.2095 46.5197 33.3904 46.4894 33.5694 46.5094L36.0129 46.9748L37.7293 45.2488C37.8689 45.1182 38.0461 45.0348 38.2358 45.0104C38.4255 44.986 38.6181 45.022 38.7862 45.1131C38.9541 45.2062 39.0879 45.3504 39.1681 45.5248C39.2483 45.6992 39.2708 45.8947 39.2322 46.0827L38.7862 48.5069L40.5219 50.2426C40.6644 50.3822 40.7604 50.5622 40.7969 50.7583C40.8333 50.9544 40.8084 51.1569 40.7255 51.3384C40.6276 51.4894 40.4896 51.6103 40.3269 51.6873C40.1642 51.7644 39.9833 51.7947 39.8044 51.7747L37.3705 51.319L35.6542 53.045C35.5649 53.1413 35.4569 53.2184 35.3369 53.2718C35.2169 53.3251 35.0873 53.3535 34.956 53.3553ZM34.1512 47.8475L35.7705 49.4766L35.3342 51.7262L36.9535 50.1069L39.1935 50.5335L37.5547 48.8948L37.9717 46.7033L36.4008 48.2936L34.1512 47.8475Z" fill="#575756"/>
<path d="M31.9981 15.8286L37.1082 15.6929L40.0948 19.8625C40.1768 19.9613 40.287 20.0327 40.4107 20.0671C40.5344 20.1016 40.6656 20.0974 40.7869 20.0552C40.9082 20.0131 41.0136 19.9349 41.0892 19.8311C41.1649 19.7273 41.207 19.603 41.21 19.4746L41.0742 14.3547L45.2535 11.3681C45.3543 11.2815 45.4286 11.1683 45.4681 11.0414C45.5075 10.9145 45.5104 10.7791 45.4765 10.6506C45.4388 10.5124 45.3545 10.3916 45.2378 10.3085C45.1212 10.2255 44.9794 10.1853 44.8365 10.1948L39.7554 10.3306L36.7495 6.15126C36.6628 6.04776 36.548 5.97156 36.4189 5.93206C36.2898 5.89246 36.152 5.89116 36.0222 5.92826C35.8849 5.96616 35.7652 6.05086 35.6837 6.16776C35.6023 6.28466 35.5642 6.42626 35.5762 6.56826L35.7119 11.659L31.5326 14.665C31.4293 14.7521 31.3527 14.8665 31.3115 14.9951C31.2703 15.1238 31.2663 15.2614 31.2999 15.3923C31.3581 15.6444 31.7363 15.8189 31.9981 15.8286Z" fill="#FFC244"/>
<path d="M40.5696 20.8809C40.3516 20.8828 40.1366 20.8307 39.9436 20.7291C39.7507 20.6276 39.586 20.4798 39.4642 20.2991L36.7297 16.5076L31.9977 16.6046C31.6941 16.6306 31.3903 16.5573 31.1319 16.3957C30.8736 16.234 30.6748 15.9929 30.5654 15.7084C30.456 15.424 30.442 15.1118 30.5254 14.8187C30.6089 14.5256 30.7853 14.2676 31.0281 14.0835L34.9067 11.3005L34.7807 6.59759C34.7662 6.26899 34.8682 5.94579 35.0686 5.68509C35.2691 5.42429 35.5551 5.24269 35.8764 5.17219C36.1457 5.10289 36.4291 5.11169 36.6935 5.19749C36.958 5.28339 37.1925 5.44279 37.3697 5.65699L40.1527 9.53569L44.8556 9.40959C45.178 9.39179 45.4965 9.48789 45.7553 9.68109C46.0141 9.87429 46.1967 10.1524 46.2713 10.4666C46.3371 10.736 46.3266 11.0183 46.241 11.2821C46.1553 11.5458 45.998 11.7805 45.7865 11.9599L41.9078 14.7428L41.995 19.4167C41.9995 19.7168 41.9078 20.0105 41.7333 20.2548C41.5588 20.499 41.3107 20.6811 41.0254 20.7742C40.8808 20.8361 40.7266 20.8722 40.5696 20.8809ZM37.5055 14.9174L40.4145 18.99L40.2884 13.9768L44.458 10.9902L39.3284 11.126L36.3612 6.94669L36.497 12.0665L32.3468 15.0434L37.5055 14.9174ZM31.9977 15.024L32.0559 15.8192V15.2956V15.0531L31.9977 15.024Z" fill="#575756"/>
<path d="M81.4516 77.2574L85.4366 80.5064L84.9716 85.6264C84.9706 85.7534 85.0096 85.8774 85.0806 85.9824C85.1526 86.0884 85.2546 86.1694 85.3726 86.2154C85.4916 86.2614 85.6216 86.2704 85.7456 86.2414C85.8686 86.2124 85.9816 86.1464 86.0666 86.0524L89.3056 82.0964L94.4156 82.5624C94.5456 82.5564 94.6706 82.5154 94.7786 82.4434C94.8856 82.3724 94.9716 82.2724 95.0266 82.1544C95.0886 82.0264 95.1046 81.8814 95.0706 81.7434C95.0376 81.6054 94.9566 81.4834 94.8426 81.3984L90.8766 78.1504L91.3516 73.0394C91.3526 72.9064 91.3156 72.7754 91.2456 72.6624C91.1746 72.5494 91.0736 72.4584 90.9546 72.3994C90.8266 72.3354 90.6806 72.3194 90.5426 72.3534C90.4036 72.3864 90.2816 72.4684 90.1976 72.5844L86.9496 76.5404L81.8396 76.0744C81.7056 76.0734 81.5746 76.1094 81.4596 76.1774C81.3456 76.2464 81.2516 76.3444 81.1896 76.4624C81.1526 76.6064 81.1576 76.7574 81.2036 76.8984C81.2506 77.0394 81.3366 77.1644 81.4516 77.2574Z" fill="#FFC244"/>
<path d="M85.6014 87.0307C85.4004 87.0327 85.2024 86.9897 85.0194 86.9047C84.7514 86.7937 84.5254 86.5987 84.3774 86.3487C84.2284 86.0987 84.1653 85.8077 84.1953 85.5187L84.6223 80.8347L80.9664 77.8387C80.7214 77.6537 80.5434 77.3947 80.4594 77.0997C80.3744 76.8047 80.3883 76.4907 80.4973 76.2047C80.6063 75.9177 80.8063 75.6747 81.0653 75.5107C81.3253 75.3477 81.6304 75.2727 81.9364 75.2977L86.6973 75.7347L89.6834 72.0887C89.8814 71.8357 90.1603 71.6587 90.4733 71.5897C90.7873 71.5207 91.1143 71.5637 91.4003 71.7107C91.6483 71.8337 91.8573 72.0247 92.0013 72.2617C92.1453 72.4987 92.2193 72.7707 92.2143 73.0487L91.7784 77.8197L95.4144 80.7957C95.6684 80.9927 95.8453 81.2717 95.9153 81.5847C95.9863 81.8977 95.9464 82.2257 95.8024 82.5127C95.6804 82.7637 95.4883 82.9747 95.2493 83.1197C95.0103 83.2637 94.7343 83.3357 94.4543 83.3267L89.6933 82.8907L86.7164 86.5267C86.5814 86.6897 86.4104 86.8207 86.2174 86.9077C86.0244 86.9947 85.8134 87.0377 85.6014 87.0307ZM82.2463 76.8887L86.2994 80.1557L85.8344 85.1497L89.0143 81.2717L94.1254 81.7367L90.1594 78.4887L90.6243 73.3877L87.3763 77.3537L82.2463 76.8887ZM81.9654 76.6267L81.4804 77.2667L81.8193 76.8497L81.9654 76.6747V76.6267Z" fill="#575756"/>
<g clip-path="url(#clip0_608_3582)">
<path fill-rule="evenodd" clip-rule="evenodd" d="M63.4473 27.5002C63.4473 25.5876 64.9977 24.0371 66.9103 24.0371H88.8804C89.6676 24.0371 90.3057 24.6753 90.3057 25.4626C90.3057 26.2498 89.6676 26.888 88.8804 26.888H66.9103C66.5722 26.888 66.2981 27.1621 66.2981 27.5002V47.4326C66.2981 47.7707 66.5722 48.0448 66.9103 48.0448H86.8428C87.1809 48.0448 87.455 47.7707 87.455 47.4326V43.3248C87.455 42.5376 88.0932 41.8994 88.8804 41.8994C89.6676 41.8994 90.3057 42.5376 90.3057 43.3248V47.4326C90.3057 49.3452 88.7554 50.8956 86.8428 50.8956H66.9103C64.9977 50.8956 63.4473 49.3452 63.4473 47.4326V27.5002Z" fill="#FFC244"/>
<path d="M81.2452 31.409C81.2452 30.6217 81.8835 29.9834 82.6708 29.9834H90.3021V37.6146C90.3021 38.4019 89.6637 39.0402 88.8764 39.0402C88.0891 39.0402 87.4508 38.4019 87.4508 37.6146V35.0336L82.0001 40.9937L77.1474 37.4916L74.2237 40.7416C73.6972 41.3269 72.7958 41.3745 72.2104 40.848C71.6251 40.3214 71.5775 39.42 72.104 38.8347L76.74 33.6814L81.6097 37.1958L85.5982 32.8346H82.6708C81.8835 32.8346 81.2452 32.1963 81.2452 31.409Z" fill="#00A082"/>
<path d="M70.0736 44.6854C71.0258 44.6854 71.7977 43.9135 71.7977 42.9613C71.7977 42.0092 71.0258 41.2373 70.0736 41.2373C69.1215 41.2373 68.3496 42.0092 68.3496 42.9613C68.3496 43.9135 69.1215 44.6854 70.0736 44.6854Z" fill="#00A082"/>
</g>
<defs>
<clipPath id="clip0_608_3582">
<rect width="27.2647" height="27" fill="white" transform="translate(63.2715 24.0234)"/>
</clipPath>
</defs>
</svg>
