<svg width="91" height="118" viewBox="0 0 91 118" fill="none" xmlns="http://www.w3.org/2000/svg">
<path fill-rule="evenodd" clip-rule="evenodd" d="M19.158 101.575L32.0571 17.2519C32.2035 16.2931 32.5373 15.3725 33.0396 14.5428C33.5418 13.7131 34.2026 12.9904 34.9842 12.4161C35.7658 11.8418 36.6528 11.4271 37.5947 11.1957C38.5366 10.9643 39.5148 10.9207 40.4736 11.0674L83.2534 17.5774C85.1814 17.8712 86.9154 18.9168 88.0744 20.4855C89.2334 22.0541 89.7234 24.018 89.4384 25.9474L76.5294 110.271C76.2354 112.199 75.1904 113.932 73.6214 115.091C72.0534 116.25 70.0894 116.74 68.1594 116.455L25.3797 109.945C24.4211 109.805 23.4995 109.477 22.6677 108.981C21.8359 108.484 21.1103 107.828 20.5324 107.051C19.9544 106.273 19.5355 105.389 19.2997 104.45C19.0639 103.51 19.0157 102.533 19.158 101.575Z" fill="#2DABD4"/>
<path d="M69.2854 117.784C68.8454 117.787 68.4074 117.753 67.9734 117.682L25.1936 111.172C24.0813 111.002 23.0134 110.614 22.0514 110.03C21.0894 109.446 20.2521 108.678 19.5876 107.77C18.9232 106.862 18.4446 105.831 18.1793 104.738C17.914 103.644 17.8674 102.509 18.0419 101.397L30.9038 17.0468C31.074 15.9372 31.4611 14.8719 32.0431 13.912C32.625 12.952 33.3904 12.1161 34.2955 11.4519C35.2006 10.7878 36.2276 10.3085 37.318 10.0414C38.4083 9.77424 39.5406 9.72455 40.6502 9.89515L83.4304 16.4051C84.5464 16.5726 85.6184 16.9601 86.5834 17.5449C87.5484 18.1298 88.3884 18.9005 89.0534 19.8122C89.7194 20.724 90.1964 21.7588 90.4584 22.8566C90.7214 23.9543 90.7634 25.0932 90.5824 26.2073L77.6824 110.53C77.3784 112.547 76.3604 114.388 74.8144 115.719C73.2684 117.05 71.2964 117.782 69.2574 117.784H69.2854ZM39.3389 12.1457C37.8553 12.1509 36.4224 12.686 35.2986 13.6546C34.1749 14.6232 33.4342 15.9615 33.2102 17.4281L20.3018 101.751C20.0505 103.377 20.4548 105.037 21.426 106.366C22.3972 107.694 23.8559 108.583 25.4819 108.837L68.2624 115.347C69.0694 115.472 69.8934 115.435 70.6864 115.241C71.4804 115.046 72.2274 114.697 72.8854 114.213C73.5434 113.729 74.1004 113.121 74.5224 112.422C74.9454 111.723 75.2264 110.947 75.3484 110.139L88.2474 25.8167C88.3714 25.0093 88.3354 24.1854 88.1414 23.392C87.9464 22.5987 87.5974 21.8515 87.1134 21.1932C86.6294 20.535 86.0204 19.9786 85.3214 19.556C84.6224 19.1333 83.8474 18.8527 83.0394 18.7301L40.2596 12.2201C39.9548 12.1743 39.6471 12.1494 39.3389 12.1457Z" fill="#575756"/>
<path fill-rule="evenodd" clip-rule="evenodd" d="M39.3388 13.4101C38.187 13.2454 37.017 13.5447 36.0858 14.2423C35.1546 14.9398 34.5384 15.9785 34.3726 17.1301L21.4456 102.606C21.2792 103.659 21.503 104.736 22.075 105.635C22.6471 106.534 23.5279 107.193 24.5518 107.489C24.7231 107.536 24.897 107.573 25.0726 107.6C25.2374 107.639 25.3818 107.738 25.4776 107.877C25.5734 108.017 25.6135 108.187 25.5903 108.355C25.567 108.522 25.4819 108.675 25.3517 108.783C25.2216 108.892 25.0557 108.947 24.8866 108.94C24.6482 108.904 24.4122 108.855 24.1798 108.791C22.8364 108.406 21.6804 107.543 20.9299 106.364C20.1794 105.185 19.8865 103.772 20.1064 102.392L33.0334 16.8976C33.2585 15.3952 34.0703 14.0433 35.2906 13.1385C36.511 12.2337 38.0404 11.8498 39.5434 12.0709L82.5554 18.5809C82.7884 18.5809 83.0204 18.6739 83.2444 18.7297C83.4184 18.7766 83.5664 18.8906 83.6564 19.0467C83.7454 19.2028 83.7704 19.3882 83.7234 19.5621C83.6764 19.736 83.5624 19.8841 83.4064 19.9739C83.2504 20.0638 83.0644 20.0879 82.8904 20.041C82.7114 19.9865 82.5274 19.9461 82.3424 19.9201L39.3388 13.4101Z" fill="white"/>
<path fill-rule="evenodd" clip-rule="evenodd" d="M82.6394 23.8461L82.4904 23.7996C82.4044 23.7645 82.3135 23.7426 82.2205 23.7345L39.4408 17.2245C39.153 17.1797 38.8592 17.1923 38.5763 17.2617C38.2935 17.3311 38.0272 17.4559 37.7928 17.6289C37.5584 17.8018 37.3607 18.0195 37.211 18.2694C37.0613 18.5192 36.9625 18.7963 36.9205 19.0845L31.3405 55.2801L26.6905 85.2909L25.8163 92.7309C25.768 93.0189 25.7777 93.3139 25.8448 93.5979C25.9118 93.8829 26.035 94.1509 26.2069 94.3869C26.3792 94.6219 26.5974 94.8199 26.8484 94.9689C27.0993 95.1169 27.3778 95.2139 27.667 95.2519L33.7957 96.1819L43.5514 97.6789L70.5214 101.789C71.1014 101.88 71.6934 101.736 72.1674 101.39C72.4034 101.219 72.6024 101.002 72.7524 100.753C72.9024 100.504 73.0014 100.227 73.0414 99.9389L75.6924 80.9569L77.0404 72.2249L80.0724 52.6296L84.0714 26.2641C84.1474 25.7578 84.0474 25.2406 83.7864 24.8C83.5254 24.3594 83.1204 24.0225 82.6394 23.8461Z" fill="#FFC244"/>
<path d="M70.7824 102.989C70.6054 103.003 70.4284 103.003 70.2524 102.989L27.4719 96.4785C27.0322 96.4135 26.61 96.2605 26.2302 96.0295C25.8504 95.7985 25.5208 95.4935 25.2608 95.1325C25.0007 94.7725 24.8155 94.3635 24.7161 93.9295C24.6167 93.4965 24.6051 93.0475 24.6819 92.6095L25.5468 85.1695L35.7117 18.9072C35.8557 18.0283 36.3412 17.242 37.0623 16.7194C37.7835 16.1968 38.6819 15.9804 39.5619 16.1172L82.3424 22.6272C82.5004 22.6488 82.6564 22.6862 82.8074 22.7388L83.0114 22.8132C83.7344 23.0891 84.3404 23.604 84.7294 24.2724C85.1184 24.9407 85.2674 25.7222 85.1504 26.4867L76.7064 81.1895L74.0554 100.152C73.9184 101.043 73.4374 101.845 72.7164 102.384C72.1484 102.778 71.4734 102.989 70.7824 102.989ZM39.069 18.3585C38.8459 18.3558 38.6276 18.4242 38.4459 18.5538C38.2243 18.7219 38.0747 18.9678 38.0274 19.242L27.7974 85.4575L26.9232 92.8975C26.8924 93.0425 26.8921 93.1915 26.9226 93.3355C26.953 93.4795 27.0134 93.6155 27.0999 93.7355C27.2645 93.9525 27.5086 94.0965 27.7788 94.1345L70.6054 100.692C70.8814 100.73 71.1614 100.66 71.3864 100.497C71.4974 100.417 71.5904 100.316 71.6614 100.199C71.7314 100.083 71.7774 99.9525 71.7954 99.8175L74.4554 80.8355L82.9004 26.124C82.9364 25.883 82.8894 25.6368 82.7654 25.4268C82.6414 25.2167 82.4494 25.0557 82.2214 24.9708L82.0354 24.915L39.255 18.405L39.069 18.3585Z" fill="#575756"/>
<path fill-rule="evenodd" clip-rule="evenodd" d="M51.9778 105.713C51.9797 106.718 51.6832 107.701 51.1259 108.538C50.5687 109.374 49.7757 110.027 48.8475 110.412C47.9193 110.798 46.8975 110.899 45.9117 110.703C44.9258 110.508 44.0202 110.024 43.3095 109.313C42.5988 108.603 42.115 107.697 41.9194 106.711C41.7237 105.725 41.8251 104.703 42.2105 103.775C42.596 102.847 43.2483 102.054 44.0848 101.497C44.9212 100.94 45.9043 100.643 46.9093 100.645C48.2536 100.645 49.5428 101.179 50.4933 102.129C51.4438 103.08 51.9778 104.369 51.9778 105.713Z" fill="#2DABD4"/>
<path d="M46.8716 111.906C45.6392 111.906 44.4345 111.541 43.4098 110.856C42.3852 110.171 41.5865 109.198 41.1149 108.06C40.6433 106.921 40.5199 105.668 40.7603 104.46C41.0008 103.251 41.5942 102.141 42.4656 101.269C43.337 100.398 44.4473 99.8043 45.656 99.5643C46.8647 99.3233 48.1175 99.4473 49.2561 99.9183C50.3947 100.39 51.3678 101.189 52.0525 102.213C52.7374 103.238 53.1024 104.443 53.1024 105.675C53.0974 107.326 52.4396 108.908 51.2722 110.076C50.1047 111.243 48.5227 111.901 46.8716 111.906ZM46.8716 101.769C46.0991 101.769 45.3439 101.998 44.7015 102.427C44.0592 102.857 43.5586 103.467 43.2629 104.18C42.9673 104.894 42.8899 105.679 43.0407 106.437C43.1914 107.195 43.5634 107.891 44.1096 108.437C44.6559 108.983 45.3519 109.355 46.1096 109.506C46.8673 109.657 47.6526 109.579 48.3664 109.284C49.0801 108.988 49.6901 108.488 50.1193 107.845C50.5485 107.203 50.7776 106.448 50.7776 105.675C50.7654 104.646 50.3488 103.664 49.6178 102.94C48.8869 102.216 47.9004 101.809 46.8716 101.806V101.769Z" fill="#575756"/>
<path d="M44.6585 109.256C44.4926 109.259 44.3311 109.203 44.2028 109.098C43.7576 108.745 43.3864 108.308 43.1101 107.812C42.8339 107.315 42.6582 106.769 42.593 106.205C42.5278 105.64 42.5744 105.069 42.7301 104.522C42.8859 103.976 43.1477 103.466 43.5006 103.021C43.8536 102.575 44.2908 102.204 44.7872 101.928C45.2837 101.652 45.8297 101.476 46.394 101.411C46.9584 101.346 47.53 101.392 48.0764 101.548C48.6227 101.704 49.133 101.966 49.5782 102.318C49.6545 102.38 49.7181 102.455 49.7652 102.541C49.8124 102.626 49.8422 102.72 49.853 102.818C49.8638 102.915 49.8554 103.013 49.8281 103.107C49.8009 103.201 49.7555 103.288 49.6944 103.365C49.6334 103.441 49.5579 103.505 49.4723 103.552C49.3866 103.599 49.2926 103.629 49.1954 103.64C49.0982 103.65 48.9999 103.642 48.906 103.615C48.8121 103.587 48.7245 103.542 48.6482 103.481C48.3579 103.229 48.0197 103.039 47.654 102.922C47.2883 102.805 46.9025 102.763 46.5201 102.798C46.1377 102.834 45.7664 102.947 45.4287 103.13C45.091 103.313 44.7939 103.562 44.5552 103.863C44.3164 104.164 44.1411 104.51 44.0397 104.881C43.9384 105.251 43.913 105.638 43.9652 106.019C44.0175 106.399 44.1462 106.765 44.3437 107.095C44.5411 107.424 44.8032 107.71 45.1142 107.936C45.2329 108.032 45.3188 108.163 45.3603 108.311C45.4017 108.458 45.3967 108.615 45.3458 108.759C45.2949 108.904 45.2008 109.029 45.0761 109.118C44.9514 109.207 44.8023 109.255 44.6492 109.256H44.6585Z" fill="white"/>
<path fill-rule="evenodd" clip-rule="evenodd" d="M48.6293 45.7374C48.5886 45.4803 48.6024 45.2174 48.6697 44.9659C48.7369 44.7144 48.8563 44.4798 49.0199 44.2773C52.9894 39.1298 54.9364 32.7073 54.4954 26.2221C54.0534 19.737 51.2529 13.6379 46.6224 9.07606C41.9919 4.51416 35.8517 1.80516 29.3607 1.46036C22.8697 1.11546 16.477 3.15866 11.3893 7.20426C6.30153 11.2499 2.87074 17.0179 1.74434 23.4197C0.618037 29.8215 1.87413 36.4142 5.27553 41.9534C8.67693 47.4925 13.9884 51.5949 20.2073 53.4863C26.4262 55.3776 33.1223 54.927 39.0317 52.2195C39.2672 52.107 39.5232 52.044 39.7839 52.0344C40.0447 52.0248 40.3046 52.0688 40.5476 52.1637L47.132 54.777C47.4357 54.8983 47.766 54.9373 48.0895 54.8902C48.4131 54.8431 48.7185 54.7115 48.9751 54.5088C49.2316 54.306 49.4301 54.0392 49.5506 53.7353C49.6712 53.4313 49.7095 53.101 49.6616 52.7775L48.6293 45.7374Z" fill="white"/>
<path d="M47.802 56.1069C47.4159 56.1066 47.0336 56.0308 46.6767 55.8837L40.0923 53.2704C39.9968 53.2292 39.894 53.2079 39.79 53.2079C39.6861 53.2079 39.5832 53.2292 39.4878 53.2704C35.8546 54.9447 31.9004 55.8079 27.9 55.8C22.3819 55.8 16.9877 54.1637 12.3996 51.098C7.81139 48.0323 4.23539 43.6749 2.12379 38.5769C0.0120864 33.4788 -0.540413 27.869 0.536087 22.457C1.61259 17.0449 4.26979 12.0736 8.17169 8.17174C12.0736 4.26984 17.0449 1.61263 22.457 0.536135C27.869 -0.540465 33.4788 0.0121353 38.5769 2.12374C43.6749 4.23544 48.0323 7.81143 51.098 12.3996C54.1634 16.9877 55.8004 22.3819 55.8004 27.9C55.8124 34.0783 53.7494 40.0818 49.941 44.9469C49.811 45.1129 49.7509 45.3231 49.7736 45.5328L50.8059 52.5729C50.8774 53.0084 50.8533 53.4542 50.7352 53.8794C50.6172 54.3047 50.408 54.6991 50.1221 55.0353C49.8363 55.3716 49.4807 55.6416 49.0801 55.8267C48.6794 56.0117 48.2433 56.1073 47.802 56.1069ZM39.8319 50.8989C40.214 50.8997 40.5926 50.9722 40.9479 51.1128L47.5323 53.7261C47.6455 53.7675 47.7675 53.7788 47.8864 53.759C48.0053 53.7391 48.1171 53.6888 48.2108 53.613C48.3044 53.5371 48.3768 53.4382 48.4209 53.326C48.465 53.2138 48.4793 53.0921 48.4623 52.9728L47.4765 45.8769C47.4173 45.4644 47.442 45.0443 47.5491 44.6416C47.6562 44.2389 47.8434 43.8619 48.0996 43.5333C51.5809 39.0714 53.4614 33.5686 53.4374 27.9093C53.4264 22.3961 51.6292 17.035 48.3161 12.6283C45.0031 8.22164 40.352 5.00643 35.0591 3.46383C29.7661 1.92113 24.1159 2.13413 18.9541 4.07083C13.7923 6.00753 9.39649 9.56383 6.42459 14.2074C3.45269 18.851 2.06449 24.3322 2.46779 29.8306C2.87119 35.329 5.04429 40.5489 8.66199 44.7091C12.2797 48.8693 17.1474 51.7461 22.5366 52.9088C27.9258 54.0716 33.5466 53.4578 38.5578 51.1593C38.9661 50.9709 39.4101 50.8726 39.8598 50.871L39.8319 50.8989Z" fill="#575756"/>
<g opacity="0.4">
<path opacity="0.4" fill-rule="evenodd" clip-rule="evenodd" d="M25.6213 6.87324C25.6169 7.18364 25.4941 7.48074 25.2781 7.70364C25.062 7.92664 24.769 8.05874 24.4588 8.07294C14.7589 8.67744 7.02133 16.9916 7.02133 27.1937C7.01493 30.9117 8.06994 34.5543 10.0624 37.6934C10.2394 37.9558 10.3083 38.2764 10.2545 38.5883C10.2008 38.9002 10.0287 39.1793 9.77413 39.3674C9.65193 39.4571 9.51274 39.5212 9.36514 39.5558C9.21744 39.5905 9.06433 39.5949 8.91483 39.5688C8.76543 39.5428 8.62283 39.4868 8.49563 39.4042C8.36843 39.3216 8.25924 39.2142 8.17454 39.0884C5.89544 35.5508 4.68754 31.4298 4.69634 27.2216C4.69634 15.7919 13.4197 6.38964 24.4588 5.77584C24.608 5.76824 24.7572 5.79104 24.8973 5.84264C25.0375 5.89434 25.1657 5.97384 25.2743 6.07634C25.383 6.17884 25.4697 6.30234 25.5293 6.43924C25.589 6.57624 25.6202 6.72384 25.6213 6.87324Z" fill="#C4C4C4"/>
</g>
<path fill-rule="evenodd" clip-rule="evenodd" d="M31.7157 13.1904C33.1803 13.1904 34.3675 14.3777 34.3675 15.8422V18.9271H35.1448C35.9851 18.9271 36.6663 19.6084 36.6663 20.4487C36.6663 21.2891 35.9851 21.9703 35.1448 21.9703H22.1986L20.9799 39.0996H36.6046L36.148 32.1178C36.0932 31.2792 36.7285 30.555 37.567 30.5001C38.4056 30.4454 39.1299 31.0807 39.1847 31.9192L39.7079 39.9199C39.7866 41.1233 38.8317 42.1428 37.6256 42.1428H19.953C18.7423 42.1428 17.7857 41.1156 17.8716 39.9079L19.2263 20.8658C19.304 19.7735 20.2128 18.9271 21.3078 18.9271H23.2078V15.8422C23.2078 14.3777 24.395 13.1904 25.8596 13.1904H31.7157ZM26.251 18.9271V16.2336H31.3244V18.9271H26.251Z" fill="#FFC244"/>
<path d="M39.3305 25.2597C40.3469 25.2597 41.1709 24.4359 41.1709 23.4194C41.1709 22.4031 40.3469 21.5791 39.3305 21.5791C38.3141 21.5791 37.4902 22.4031 37.4902 23.4194C37.4902 24.4359 38.3141 25.2597 39.3305 25.2597Z" fill="#00A082"/>
<path d="M37.14 27.6395C37.7342 27.0453 37.7343 26.0818 37.1401 25.4876C36.5459 24.8934 35.5825 24.8934 34.9883 25.4876L29.0687 31.4068L26.3709 28.709C25.7767 28.1148 24.8133 28.1148 24.2191 28.709C23.6249 29.3032 23.6249 30.2667 24.2191 30.8609L29.0687 35.7105L37.14 27.6395Z" fill="#00A082"/>
</svg>
